<?xml version="1.0" encoding="UTF-8" standalone="no"?>
<!-- Created with Inkscape (http://www.inkscape.org/) -->

<svg
   width="100mm"
   height="100mm"
   viewBox="0 0 100 100"
   version="1.1"
   id="svg1"
   inkscape:version="1.3.2 (091e20e, 2023-11-25, custom)"
   sodipodi:docname="kof-logo.svg"
   inkscape:export-filename="kof-logo.png"
   inkscape:export-xdpi="130.048"
   inkscape:export-ydpi="130.048"
   xmlns:inkscape="http://www.inkscape.org/namespaces/inkscape"
   xmlns:sodipodi="http://sodipodi.sourceforge.net/DTD/sodipodi-0.dtd"
   xmlns:xlink="http://www.w3.org/1999/xlink"
   xmlns="http://www.w3.org/2000/svg"
   xmlns:svg="http://www.w3.org/2000/svg">
  <sodipodi:namedview
     id="namedview1"
     pagecolor="#505050"
     bordercolor="#ffffff"
     borderopacity="1"
     inkscape:showpageshadow="0"
     inkscape:pageopacity="0"
     inkscape:pagecheckerboard="1"
     inkscape:deskcolor="#505050"
     inkscape:document-units="mm"
     inkscape:zoom="1.5892817"
     inkscape:cx="108.85421"
     inkscape:cy="164.85435"
     inkscape:window-width="1920"
     inkscape:window-height="1130"
     inkscape:window-x="-6"
     inkscape:window-y="-6"
     inkscape:window-maximized="1"
     inkscape:current-layer="layer1" />
  <defs
     id="defs1">
    <linearGradient
       id="linearGradient6"
       inkscape:collect="always">
      <stop
         style="stop-color:#420057;stop-opacity:1;"
         offset="0"
         id="stop7" />
      <stop
         style="stop-color:#752333;stop-opacity:1;"
         offset="0.5440678"
         id="stop11" />
      <stop
         style="stop-color:#862f26;stop-opacity:1;"
         offset="0.76440674"
         id="stop12" />
      <stop
         style="stop-color:#bf3f00;stop-opacity:1;"
         offset="1"
         id="stop8" />
    </linearGradient>
    <linearGradient
       inkscape:collect="always"
       xlink:href="#linearGradient6"
       id="linearGradient8"
       x1="0.45097351"
       y1="50"
       x2="99.549026"
       y2="50"
       gradientUnits="userSpaceOnUse"
       gradientTransform="matrix(0.80728126,0,0,0.80728126,-40.364063,30.346614)" />
  </defs>
  <g
     inkscape:label="Layer 1"
     inkscape:groupmode="layer"
     id="layer1"
     transform="matrix(1.25,0,0,1.25,-12.5,-12.5)">
    <circle
       style="display:inline;fill:url(#linearGradient8);stroke:none;stroke-width:0.728128;stroke-linecap:round"
       id="path1"
       cx="-7.2429015e-07"
       cy="70.710678"
       r="40"
       transform="rotate(-45)"
       inkscape:label="Circle" />
    <g
       id="g14"
       inkscape:label="KoF">
      <g
         id="g13"
         inkscape:label="F"
         transform="translate(-6)">
        <path
           style="font-size:40.5694px;font-family:'Major Mono Display';-inkscape-font-specification:'Major Mono Display, Normal';display:inline;fill:#ffffff;fill-opacity:1;stroke-width:0.5;stroke-linecap:round"
           d="M 69.960071,35.882048 V 64.11805 h 1.5012 V 53.569857 H 87.039648 V 46.429724 H 71.461271 v -9.046993 h 19.432923 v -1.500683 z"
           id="path4"
           inkscape:label="F-BG" />
        <path
           style="font-size:40.5694px;font-family:'Major Mono Display';-inkscape-font-specification:'Major Mono Display, Normal';display:inline;stroke-width:0.499999;stroke-linecap:round"
           d="M 69.960071,35.882048 V 64.11805 h 1.5012 V 53.569857 H 87.039648 V 46.429724 H 71.461271 v -9.046993 h 19.432406 v -1.500683 z"
           id="path11"
           inkscape:label="F-FG" />
      </g>
      <g
         id="g12"
         inkscape:label="K"
         transform="translate(7)">
        <path
           style="font-size:40.5694px;font-family:'Major Mono Display';-inkscape-font-specification:'Major Mono Display, Normal';display:inline;fill:#ffffff;fill-opacity:1;stroke-width:0.5;stroke-linecap:round"
           d="M 9.1059041,35.882048 V 64.11805 H 31.824931 L 20.059757,47.647221 31.824931,35.882048 Z"
           id="path3"
           inkscape:label="K-BG" />
        <path
           style="font-size:40.5694px;font-family:'Major Mono Display';-inkscape-font-specification:'Major Mono Display, Normal';display:inline;stroke-width:0.499999;stroke-linecap:round"
           d="M 9.1059041,35.882048 V 64.11805 H 31.824931 L 20.059757,47.647221 31.824931,35.882048 Z M 19.005042,48.701937 28.944486,62.61685 H 10.607104 v -5.516976 z"
           id="path10"
           inkscape:label="K-FG" />
      </g>
      <g
         id="g11"
         inkscape:label="O">
        <path
           style="font-size:40.5694px;font-family:'Major Mono Display';-inkscape-font-specification:'Major Mono Display, Normal';display:inline;fill:#ffffff;fill-opacity:1;stroke-width:0.5;stroke-linecap:round"
           d="m 49.675521,35.273299 c -2.109607,0 -4.056969,0.527529 -5.842021,1.582333 -1.785052,1.027757 -3.204885,2.433812 -4.259688,4.218863 -1.027757,1.785052 -1.542025,3.732414 -1.542025,5.842021 v 6.166549 c 0,2.109607 0.514268,4.056969 1.542025,5.84202 1.054803,1.785052 2.474636,3.205402 4.259688,4.260206 1.785052,1.027757 3.732414,1.541508 5.842021,1.541508 2.109607,0 4.056969,-0.513751 5.842021,-1.541508 1.785051,-1.054804 3.191106,-2.475154 4.218863,-4.260206 1.054804,-1.785051 1.582333,-3.732413 1.582333,-5.84202 v -6.166549 c 0,-2.109607 -0.527529,-4.056969 -1.582333,-5.842021 -1.027757,-1.785051 -2.433812,-3.191106 -4.218863,-4.218863 -1.785052,-1.054804 -3.732414,-1.582333 -5.842021,-1.582333 z"
           id="path2"
           inkscape:label="O-BG" />
        <path
           style="font-size:40.5694px;font-family:'Major Mono Display';-inkscape-font-specification:'Major Mono Display, Normal';display:inline;stroke-width:0.499999;stroke-linecap:round"
           d="m 49.675521,35.273299 c -2.109607,0 -4.056969,0.527529 -5.842021,1.582333 -1.785052,1.027757 -3.204885,2.433812 -4.259688,4.218863 -1.027757,1.785052 -1.542025,3.732414 -1.542025,5.842021 v 6.166549 c 0,2.109607 0.514268,4.056969 1.542025,5.84202 1.054803,1.785052 2.474636,3.205402 4.259688,4.260206 1.785052,1.027757 3.732414,1.541508 5.842021,1.541508 2.109607,0 4.056969,-0.513751 5.842021,-1.541508 1.785051,-1.054804 3.191106,-2.475154 4.218863,-4.260206 1.054804,-1.785051 1.582333,-3.732413 1.582333,-5.84202 v -6.166549 c 0,-2.109607 -0.527529,-4.056969 -1.582333,-5.842021 -1.027757,-1.785051 -2.433812,-3.191106 -4.218863,-4.218863 -1.785052,-1.054804 -3.732414,-1.582333 -5.842021,-1.582333 z m 0,1.501201 c 1.839144,0 3.529372,0.459671 5.071008,1.379243 1.568682,0.892526 2.799239,2.123083 3.691764,3.691765 0.919573,1.541636 1.379244,3.231864 1.379244,5.071008 v 6.166549 c 0,1.839144 -0.459671,3.543151 -1.379244,5.111832 -0.892525,1.541636 -2.123082,2.772193 -3.691764,3.691765 -1.541636,0.892526 -3.231864,1.338936 -5.071008,1.338936 -1.839144,0 -3.543151,-0.44641 -5.111833,-1.338936 -1.541636,-0.919572 -2.772192,-2.150129 -3.691764,-3.691765 -0.892526,-1.568681 -1.338937,-3.272688 -1.338937,-5.111832 v -6.166549 c 0,-1.839144 0.446411,-3.529372 1.338937,-5.071008 0.919572,-1.568682 2.150128,-2.799239 3.691764,-3.691765 1.568682,-0.919572 3.272689,-1.379243 5.111833,-1.379243 z"
           id="path6"
           inkscape:label="O-FG" />
      </g>
    </g>
  </g>
</svg>
